<?xml version="1.0" encoding="UTF-8"?>
<svg id="Layer_1" data-name="Layer 1" xmlns="http://www.w3.org/2000/svg" viewBox="0 0 392 435">
  <defs>
    <style>
      .cls-1 {
        font-family: Ravie, Ravie;
        font-size: 60px;
        stroke: gold;
      }

      .cls-1, .cls-2 {
        fill: gold;
      }

      .cls-1, .cls-3 {
        stroke-miterlimit: 10;
      }

      .cls-4 {
        fill: #ff0017;
      }

      .cls-5 {
        fill: #ffae36;
      }

      .cls-3 {
        fill: aqua;
        stroke: aqua;
      }
    </style>
  </defs>
  <path class="cls-3" d="m137.72.5h127.92c69.46,0,125.86,56.4,125.86,125.86v201.53c0,58.84-47.77,106.61-106.61,106.61H105.93c-58.19,0-105.43-47.24-105.43-105.43v-191.35C.5,61.99,61.99.5,137.72.5Z"/>
  <g id="Body-bottom">
    <rect class="cls-2" x="49.5" y="219.5" width="291" height="144"/>
    <path class="cls-2" d="m340,220v143H50v-143h290m1-1H49v145h292v-145h0Z"/>
  </g>
  <g id="Body-top">
    <path class="cls-2" d="m76.5,218.5v-80.28c0-35.13,28.58-63.72,63.72-63.72h103.74c35.04,0,63.54,28.51,63.54,63.54v80.46H76.5Z"/>
    <path class="cls-2" d="m243.96,75c34.76,0,63.04,28.28,63.04,63.04v79.96H77v-79.78c0-34.86,28.36-63.22,63.22-63.22h103.74m0-1h-103.74c-35.47,0-64.22,28.75-64.22,64.22v80.78h232v-80.96c0-35.37-28.67-64.04-64.04-64.04h0Z"/>
  </g>
  <g id="Tyre2">
    <path d="m97.39,430.5c-8.76,0-15.89-7.13-15.89-15.89v-50.11h46v48.17c0,9.83-8,17.83-17.83,17.83h-12.28Z"/>
    <path d="m127,365v47.67c0,9.55-7.77,17.33-17.33,17.33h-12.28c-8.49,0-15.39-6.9-15.39-15.39v-49.61h45m1-1h-47v50.61c0,9.05,7.34,16.39,16.39,16.39h12.28c10.12,0,18.33-8.2,18.33-18.33v-48.67h0Z"/>
  </g>
  <g id="Tyre1">
    <path d="m280.28,430.5c-9.8,0-17.78-7.98-17.78-17.78v-48.22h46v47.89c0,9.99-8.12,18.11-18.11,18.11h-10.11Z"/>
    <path d="m308,365v47.39c0,9.71-7.9,17.61-17.61,17.61h-10.11c-9.53,0-17.28-7.75-17.28-17.28v-47.72h45m1-1h-47v48.72c0,10.1,8.19,18.28,18.28,18.28h10.11c10.28,0,18.61-8.33,18.61-18.61v-48.39h0Z"/>
  </g>
  <g>
    <ellipse class="cls-4" cx="76" cy="250.5" rx="17.5" ry="18"/>
    <path d="m76,233c9.37,0,17,7.85,17,17.5s-7.63,17.5-17,17.5-17-7.85-17-17.5,7.63-17.5,17-17.5m0-1c-9.94,0-18,8.28-18,18.5s8.06,18.5,18,18.5,18-8.28,18-18.5-8.06-18.5-18-18.5h0Z"/>
  </g>
  <g>
    <ellipse class="cls-4" cx="308" cy="250.5" rx="17.5" ry="18"/>
    <path d="m308,233c9.37,0,17,7.85,17,17.5s-7.63,17.5-17,17.5-17-7.85-17-17.5,7.63-17.5,17-17.5m0-1c-9.94,0-18,8.28-18,18.5s8.06,18.5,18,18.5,18-8.28,18-18.5-8.06-18.5-18-18.5h0Z"/>
  </g>
  <g>
    <ellipse class="cls-5" cx="76" cy="300.5" rx="17.5" ry="18"/>
    <path d="m76,283c9.37,0,17,7.85,17,17.5s-7.63,17.5-17,17.5-17-7.85-17-17.5,7.63-17.5,17-17.5m0-1c-9.94,0-18,8.28-18,18.5s8.06,18.5,18,18.5,18-8.28,18-18.5-8.06-18.5-18-18.5h0Z"/>
  </g>
  <g>
    <ellipse class="cls-5" cx="308" cy="300.5" rx="17.5" ry="18"/>
    <path d="m308,283c9.37,0,17,7.85,17,17.5s-7.63,17.5-17,17.5-17-7.85-17-17.5,7.63-17.5,17-17.5m0-1c-9.94,0-18,8.28-18,18.5s8.06,18.5,18,18.5,18-8.28,18-18.5-8.06-18.5-18-18.5h0Z"/>
  </g>
  <text class="cls-1" transform="translate(11.22 184.74)"><tspan x="0" y="0">C</tspan></text>
  <text class="cls-1" transform="translate(22.11 104.33)"><tspan x="0" y="0">a</tspan></text>
  <text class="cls-1" transform="translate(85.67 61.33)"><tspan x="0" y="0">r</tspan></text>
  <text class="cls-1" transform="translate(194.65 61.39)"><tspan x="0" y="0">S</tspan></text>
  <text class="cls-1" transform="translate(333.94 203.33)"><tspan x="0" y="0">e</tspan></text>
  <text class="cls-1" transform="translate(340.94 146.33)"><tspan x="0" y="0">r</tspan></text>
  <text class="cls-1" transform="translate(312.94 90.33)"><tspan x="0" y="0">a</tspan></text>
  <text class="cls-1" transform="translate(254.94 61.33)"><tspan x="0" y="0">h</tspan></text>
  <path class="cls-3" d="m279.5,125.76v91.74H105.5v-91.87c0-13.05,10.58-23.63,23.63-23.63h126.61c13.12,0,23.76,10.64,23.76,23.76Z"/>
</svg>