<?xml version="1.0" standalone="no"?>
<!DOCTYPE svg PUBLIC "-//W3C//DTD SVG 20010904//EN"
 "http://www.w3.org/TR/2001/REC-SVG-20010904/DTD/svg10.dtd">
<svg version="1.0" xmlns="http://www.w3.org/2000/svg"
 width="870.000000pt" height="870.000000pt" viewBox="0 0 870.000000 870.000000"
 preserveAspectRatio="xMidYMid meet">
<metadata>
Created by potrace 1.14, written by Peter Selinger 2001-2017
</metadata>
<g transform="translate(0.000000,870.000000) scale(0.100000,-0.100000)"
fill="#000000" stroke="none">
<path d="M2979 8696 c-2 -3 -29 -7 -59 -10 -122 -11 -155 -16 -230 -31 -13 -2
-42 -7 -64 -11 -22 -3 -44 -8 -49 -11 -4 -3 -23 -7 -40 -10 -18 -3 -40 -9 -49
-14 -10 -5 -18 -8 -18 -5 0 3 -25 -4 -55 -14 -30 -10 -55 -16 -55 -13 0 3 -7
0 -15 -7 -8 -7 -15 -9 -15 -5 0 4 -6 3 -12 -2 -7 -6 -25 -13 -40 -17 -15 -3
-40 -11 -55 -18 -15 -6 -30 -12 -33 -13 -76 -26 -380 -175 -380 -186 0 -5 -6
-9 -13 -9 -21 0 -271 -169 -333 -225 -7 -5 -31 -26 -55 -44 -59 -47 -297 -286
-334 -336 -17 -22 -35 -44 -41 -50 -16 -14 -114 -150 -149 -205 -15 -25 -31
-47 -34 -50 -4 -3 -12 -16 -19 -30 -7 -14 -22 -41 -34 -60 -23 -38 -131 -245
-128 -245 1 0 -9 -25 -22 -55 -14 -31 -33 -80 -43 -110 -10 -30 -23 -58 -29
-62 -6 -4 -8 -8 -4 -8 4 0 -1 -24 -11 -52 -10 -29 -19 -57 -20 -63 -1 -5 -6
-28 -12 -50 -6 -22 -12 -44 -13 -50 -1 -5 -5 -16 -9 -22 -5 -7 -6 -13 -3 -13
2 0 0 -15 -5 -32 -9 -32 -16 -67 -24 -118 -2 -14 -7 -38 -10 -55 -4 -16 -8
-46 -10 -65 -2 -19 -8 -64 -12 -100 -10 -84 -11 -4279 0 -4345 4 -27 10 -63
12 -80 11 -73 17 -105 36 -180 11 -44 22 -87 24 -95 16 -64 85 -242 98 -251 4
-3 7 -10 6 -15 -3 -11 33 -88 44 -92 4 -2 7 -12 7 -23 0 -10 5 -19 10 -19 6 0
10 -6 10 -13 0 -13 154 -255 169 -267 4 -3 26 -30 49 -60 47 -60 150 -168 228
-240 66 -60 237 -190 251 -190 6 0 13 -3 15 -7 6 -15 239 -147 250 -142 2 0
26 -11 53 -24 28 -14 79 -35 115 -47 36 -12 71 -26 78 -32 6 -6 12 -8 12 -5 0
3 30 -3 68 -14 76 -23 84 -25 167 -40 66 -12 91 -16 180 -27 81 -10 3953 -9
4035 1 89 10 121 16 225 38 50 11 97 21 105 23 20 3 182 57 195 65 6 3 15 6
20 7 13 2 176 75 190 85 6 4 40 23 78 42 37 20 97 56 133 81 36 25 69 46 74
46 4 0 10 3 12 8 2 4 37 34 78 67 108 85 287 267 345 349 11 15 25 33 31 40
32 34 204 314 204 332 0 2 16 37 36 79 20 42 37 81 38 88 2 7 8 23 13 37 17
41 70 221 82 280 22 109 25 123 38 210 10 71 11 4451 0 4550 -4 41 -10 82 -12
90 -3 8 -7 33 -10 55 -6 46 -9 65 -30 155 -9 36 -17 74 -19 85 -6 30 -75 236
-91 270 -7 17 -23 55 -35 85 -12 30 -37 84 -56 120 -19 35 -34 70 -34 76 0 7
-3 14 -8 16 -4 2 -27 37 -51 78 -25 41 -48 77 -53 78 -4 2 -8 10 -8 18 0 8 -4
14 -10 14 -5 0 -10 6 -10 13 0 8 -9 22 -20 32 -11 10 -20 22 -20 26 0 8 -14
28 -45 63 -5 6 -28 34 -50 61 -57 72 -109 128 -199 214 -117 112 -119 114
-162 146 -21 16 -44 34 -51 40 -29 24 -43 34 -128 93 -50 34 -96 62 -102 62
-6 0 -13 4 -15 9 -5 14 -228 127 -346 176 -91 37 -235 85 -299 100 -10 3 -36
9 -58 15 -22 6 -56 13 -75 16 -19 3 -51 9 -70 14 -19 5 -61 12 -93 15 -32 4
-68 9 -80 13 -24 7 -3031 15 -3038 8z"/>
</g>
</svg>
